HIERARCHY
ROOT Hips
{
	OFFSET 0.00 0.00 0.00
	CHANNELS 6 Xposition Yposition Zposition Zrotation Xrotation Yrotation
	JOINT Spine
	{
		OFFSET 0 13.7848 0.0644
		CHANNELS 3 Zrotation Xrotation Yrotation
		JOINT Spine1
		{
			OFFSET 0 12.0447 -0
			CHANNELS 3 Zrotation Xrotation Yrotation
			JOINT Spine2
			{
				OFFSET -0 17.8005 -0
				CHANNELS 3 Zrotation Xrotation Yrotation
				JOINT Neck
				{
					OFFSET 0 40.9166 -0
					CHANNELS 3 Zrotation Xrotation Yrotation
					JOINT Head
					{
						OFFSET -0 21.2887 0
						CHANNELS 3 Zrotation Xrotation Yrotation
						JOINT HeadTop_End
						{
							OFFSET 0 17.4474 0
							CHANNELS 3 Zrotation Xrotation Yrotation
						}
					}
				}
				JOINT LeftShoulder
				{
					OFFSET 17.3995 23.8766 -6.0721
					CHANNELS 3 Zrotation Xrotation Yrotation
					JOINT LeftArm
					{
						OFFSET -0 19.9201 -0
						CHANNELS 3 Zrotation Xrotation Yrotation
						JOINT LeftForeArm
						{
							OFFSET -0 49.2901 -0
							CHANNELS 3 Zrotation Xrotation Yrotation
							JOINT LeftHand
							{
								OFFSET 0 31.562 0
								CHANNELS 3 Zrotation Xrotation Yrotation
								JOINT LeftHandThumb1
								{
									OFFSET -7.9466 6.134 2.4863
									CHANNELS 3 Zrotation Xrotation Yrotation
									JOINT LeftHandThumb2
									{
										OFFSET -0.0255 -7.7944 -0.0327
										CHANNELS 3 Zrotation Xrotation Yrotation
										JOINT LeftHandThumb3
										{
											OFFSET -0.0205 -8.3869 0.0307
											CHANNELS 3 Zrotation Xrotation Yrotation
											JOINT LeftHandThumb4
											{
												OFFSET 0.0565 -7.2511 -0.013
												CHANNELS 3 Zrotation Xrotation Yrotation
											}
										}
									}
								}
								JOINT LeftHandPinky1
								{
									OFFSET 10.9531 18.9207 3.2871
									CHANNELS 3 Zrotation Xrotation Yrotation
									JOINT LeftHandPinky2
									{
										OFFSET -0.0034 -4.9187 0.0963
										CHANNELS 3 Zrotation Xrotation Yrotation
										JOINT LeftHandPinky3
										{
											OFFSET 0.0758 -5.2323 0.0358
											CHANNELS 3 Zrotation Xrotation Yrotation
											JOINT LeftHandPinky4
											{
												OFFSET -0.1312 -5.5702 0.001
												CHANNELS 3 Zrotation Xrotation Yrotation
											}
										}
									}
								}
								JOINT LeftHandRing1
								{
									OFFSET 6.2716 22.7261 1.7123
									CHANNELS 3 Zrotation Xrotation Yrotation
									JOINT LeftHandRing2
									{
										OFFSET -0.0452 -6.4083 0.0434
										CHANNELS 3 Zrotation Xrotation Yrotation
										JOINT LeftHandRing3
										{
											OFFSET -0.1152 -6.1487 -0.0756
											CHANNELS 3 Zrotation Xrotation Yrotation
											JOINT LeftHandRing4
											{
												OFFSET -0.2306 -6.141 -0.0323
												CHANNELS 3 Zrotation Xrotation Yrotation
											}
										}
									}
								}
								JOINT LeftHandMiddle1
								{
									OFFSET -0 23.374 -0
									CHANNELS 3 Zrotation Xrotation Yrotation
									JOINT LeftHandMiddle2
									{
										OFFSET -0.1878 -6.9921 -0.168
										CHANNELS 3 Zrotation Xrotation Yrotation
										JOINT LeftHandMiddle3
										{
											OFFSET -0.0477 -7.0158 0.0144
											CHANNELS 3 Zrotation Xrotation Yrotation
											JOINT LeftHandMiddle4
											{
												OFFSET -0.0402 -7.7215 -0.0133
												CHANNELS 3 Zrotation Xrotation Yrotation
											}
										}
									}
								}
								JOINT LeftHandIndex1
								{
									OFFSET -6.1355 21.3106 -1.073
									CHANNELS 3 Zrotation Xrotation Yrotation
									JOINT LeftHandIndex2
									{
										OFFSET 0.0766 -7.536 -0.0238
										CHANNELS 3 Zrotation Xrotation Yrotation
										JOINT LeftHandIndex3
										{
											OFFSET -0.0927 -7.5116 0.0451
											CHANNELS 3 Zrotation Xrotation Yrotation
											JOINT LeftHandIndex4
											{
												OFFSET -0.0002 -10.2123 -0.0339
												CHANNELS 3 Zrotation Xrotation Yrotation
											}
										}
									}
								}
							}
						}
					}
				}
				JOINT RightShoulder
				{
					OFFSET -17.3995 23.8766 -6.0721
					CHANNELS 3 Zrotation Xrotation Yrotation
					JOINT RightArm
					{
						OFFSET 0 19.9201 0
						CHANNELS 3 Zrotation Xrotation Yrotation
						JOINT RightForeArm
						{
							OFFSET 0 49.2901 0
							CHANNELS 3 Zrotation Xrotation Yrotation
							JOINT RightHand
							{
								OFFSET -0 31.562 0
								CHANNELS 3 Zrotation Xrotation Yrotation
								JOINT RightHandThumb1
								{
									OFFSET 7.9466 6.134 2.4863
									CHANNELS 3 Zrotation Xrotation Yrotation
									JOINT RightHandThumb2
									{
										OFFSET 0.0255 -7.7944 -0.0327
										CHANNELS 3 Zrotation Xrotation Yrotation
										JOINT RightHandThumb3
										{
											OFFSET 0.0205 -8.3869 0.0307
											CHANNELS 3 Zrotation Xrotation Yrotation
											JOINT RightHandThumb4
											{
												OFFSET -0.0565 -7.2511 -0.013
												CHANNELS 3 Zrotation Xrotation Yrotation
											}
										}
									}
								}
								JOINT RightHandIndex1
								{
									OFFSET 6.1355 21.3106 -1.073
									CHANNELS 3 Zrotation Xrotation Yrotation
									JOINT RightHandIndex2
									{
										OFFSET -0.0766 -7.536 -0.0238
										CHANNELS 3 Zrotation Xrotation Yrotation
										JOINT RightHandIndex3
										{
											OFFSET 0.0927 -7.5116 0.0451
											CHANNELS 3 Zrotation Xrotation Yrotation
											JOINT RightHandIndex4
											{
												OFFSET 0.0002 -10.2123 -0.0339
												CHANNELS 3 Zrotation Xrotation Yrotation
											}
										}
									}
								}
								JOINT RightHandMiddle1
								{
									OFFSET 0 23.374 -0
									CHANNELS 3 Zrotation Xrotation Yrotation
									JOINT RightHandMiddle2
									{
										OFFSET 0.1878 -6.9921 -0.168
										CHANNELS 3 Zrotation Xrotation Yrotation
										JOINT RightHandMiddle3
										{
											OFFSET 0.0477 -7.0158 0.0144
											CHANNELS 3 Zrotation Xrotation Yrotation
											JOINT RightHandMiddle4
											{
												OFFSET 0.0402 -7.7215 -0.0133
												CHANNELS 3 Zrotation Xrotation Yrotation
											}
										}
									}
								}
								JOINT RightHandRing1
								{
									OFFSET -6.2716 22.7261 1.7123
									CHANNELS 3 Zrotation Xrotation Yrotation
									JOINT RightHandRing2
									{
										OFFSET 0.0452 -6.4083 0.0434
										CHANNELS 3 Zrotation Xrotation Yrotation
										JOINT RightHandRing3
										{
											OFFSET 0.1152 -6.1487 -0.0756
											CHANNELS 3 Zrotation Xrotation Yrotation
											JOINT RightHandRing4
											{
												OFFSET 0.2306 -6.141 -0.0323
												CHANNELS 3 Zrotation Xrotation Yrotation
											}
										}
									}
								}
								JOINT RightHandPinky1
								{
									OFFSET -10.9531 18.9207 3.2871
									CHANNELS 3 Zrotation Xrotation Yrotation
									JOINT RightHandPinky2
									{
										OFFSET 0.0034 -4.9187 0.0963
										CHANNELS 3 Zrotation Xrotation Yrotation
										JOINT RightHandPinky3
										{
											OFFSET -0.0758 -5.2323 0.0358
											CHANNELS 3 Zrotation Xrotation Yrotation
											JOINT RightHandPinky4
											{
												OFFSET 0.1312 -5.5702 0.001
												CHANNELS 3 Zrotation Xrotation Yrotation
											}
										}
									}
								}
							}
						}
					}
				}
			}
		}
	}
	JOINT LeftUpLeg
	{
		OFFSET 19.8991 -7.8851 -3.4295
		CHANNELS 3 Zrotation Xrotation Yrotation
		JOINT LeftLeg
		{
			OFFSET -0 38.4457 -0
			CHANNELS 3 Zrotation Xrotation Yrotation
			JOINT LeftFoot
			{
				OFFSET -0.1321 32.8117 -0.1889
				CHANNELS 3 Zrotation Xrotation Yrotation
				JOINT LeftToeBase
				{
					OFFSET 0 24.02 0
					CHANNELS 3 Zrotation Xrotation Yrotation
					JOINT LeftToe_End
					{
						OFFSET -0 16.6166 -0
						CHANNELS 3 Zrotation Xrotation Yrotation
					}
				}
			}
		}
	}
	JOINT RightUpLeg
	{
		OFFSET -19.8991 -7.8851 -3.4295
		CHANNELS 3 Zrotation Xrotation Yrotation
		JOINT RightLeg
		{
			OFFSET 0 38.4457 -0
			CHANNELS 3 Zrotation Xrotation Yrotation
			JOINT RightFoot
			{
				OFFSET 0.1321 32.8117 -0.1889
				CHANNELS 3 Zrotation Xrotation Yrotation
				JOINT RightToeBase
				{
					OFFSET -0 24.02 0
					CHANNELS 3 Zrotation Xrotation Yrotation
					JOINT RightToe_End
					{
						OFFSET 0 16.6166 -0
						CHANNELS 3 Zrotation Xrotation Yrotation
					}
				}
			}
		}
	}
}
MOTION
Frames: 6
Frame Time: 0.0333333
-2.9692	78.0868	1.5245	4.0861	9.91655	-24.9829	4.85953	2.62688	-3.32209	3.89063	5.79838	-3.36092	4.90038	22.0502	-3.56852	-2.17746	21.8588	5.69118	-31.0796	-45.2467	-4.2431	-0	-55.7115	-0	-84.8534	-1.48048	13.8515	-80.1327	42.822	50.9484	85.989	41.8403	-4.32219	12.2306	-16.9387	52.5111	-143.189	-2.67664	-131.279	9.50466	8.25631	-10.0831	53.3277	-2.2092	27.1347	-8.6489	-1.81523	-33.3438	130.409	-19.6198	-175.598	5.20814	36.4242	-10.5947	20.7061	53.4606	-28.91	-0.569979	-8.19974	-4.84949	153.241	15.3684	-171.237	1.7972	57.8006	0.548923	2.54655	29.2668	-7.21956	-0	-6.0471	-0	-173.031	-3.69285	-177.418	-23.2444	63.542	27.659	-2.5472	15.7685	1.60179	0.291655	-5.22659	-2.24865	-140.819	-12.3851	-173.276	-4.03741	13.5186	6.3811	-26.8665	36.5609	30.4271	-2.39024	-0.645758	5.07582	77.9564	9.68419	-13.8204	59.2724	56.3072	-36.5503	-105.549	42.1255	16.3238	0.384116	13.1759	-48.9987	118.64	14.8755	146.956	-35.0022	-19.1511	-5.55884	0.754176	14.8307	3.6246	8.6489	-1.81523	33.3438	167.982	7.08264	-167.648	18.5654	31.4828	-21.5504	5.58279	13.658	-9.07448	2.39024	-0.645758	-5.07582	-177.125	8.57069	178.067	32.1338	68.1112	-36.0473	8.21015	42.0386	-6.41729	-0.291655	-5.22659	2.24865	-168.684	-13.4768	176.211	-3.01233	39.1671	-2.9116	-1.46156	-1.24204	0.546228	-0	-6.0471	-0	-151.948	-45.5732	-177.584	-24.3431	60.8213	35.6011	-11.6986	43.8484	18.1196	0.569979	-8.19974	4.84949	-128.948	39.5301	-46.3094	37.5073	-83.3345	27.1996	-58.3359	61.9286	41.2415	-2.90135	56.6239	3.58167	-0.214127	1.01299	0.205132	138.335	45.0378	42.0412	-74.5993	-82.431	-68.6644	63.8916	68.5524	-53.4252	3.02451	56.5155	-4.38535	0.214127	1.01299	-0.205132
-2.2868	77.8489	1.8761	3.65828	10.1168	-23.9601	4.65938	2.93768	-2.84604	3.69504	6.03868	-2.99865	4.60013	22.2858	-3.17746	-2.62355	21.4728	4.89285	-26.8694	-45.3087	-2.5725	-0	-55.7115	-0	-85.6043	-1.48457	13.8191	-79.1669	43.8714	52.3688	85.9222	41.834	-4.28158	12.1018	-16.9498	54.0162	-143.189	-2.67656	-131.279	9.50468	8.25641	-10.0831	53.3276	-2.20911	27.1347	-8.6489	-1.81523	-33.3438	130.409	-19.6198	-175.598	5.20814	36.4242	-10.5947	20.7061	53.4607	-28.9101	-0.569979	-8.19974	-4.84949	153.241	15.3684	-171.237	1.7972	57.8006	0.548923	2.54655	29.2668	-7.21956	-0	-6.0471	-0	-173.031	-3.69285	-177.418	-23.2443	63.542	27.659	-2.5472	15.7685	1.60179	0.291655	-5.22659	-2.24865	-140.819	-12.3851	-173.276	-4.03741	13.5186	6.3811	-26.8665	36.561	30.4271	-2.39024	-0.645758	5.07582	78.7957	9.22952	-13.879	60.2512	56.3989	-37.1007	-103.78	42.225	15.2401	0.431431	13.1002	-49.2708	118.64	14.8755	146.956	-35.0022	-19.1511	-5.55884	0.754176	14.8307	3.6246	8.6489	-1.81523	33.3438	167.982	7.08245	-167.648	18.5655	31.483	-21.5505	5.58283	13.6581	-9.07459	2.39024	-0.645758	-5.07582	-177.125	8.57039	178.067	32.1343	68.1114	-36.0478	8.21035	42.0387	-6.41743	-0.291655	-5.22659	2.24865	-168.684	-13.4772	176.211	-3.01239	39.1674	-2.91149	-1.46146	-1.24184	0.546228	-0	-6.0471	-0	-151.948	-45.5734	-177.584	-24.3435	60.8215	35.6014	-11.6988	43.8485	18.1197	0.569979	-8.19974	4.84949	-128.171	40.6984	-47.5778	48.9016	-83.8898	39.3635	-57.7567	62.445	41.4379	-2.89562	56.7199	3.58188	-0.214127	1.01299	0.205132	137.513	44.1643	42.6553	-74.1559	-82.4977	-68.5997	63.1217	68.2362	-52.0811	3.10683	56.7552	-4.98015	0.214127	1.01299	-0.205132
-1.6635	77.7042	2.2115	3.2554	10.2309	-23.0304	4.53763	3.26898	-2.38238	3.53241	6.28752	-2.65076	4.33391	22.53	-2.79377	-3.15098	21.3828	4.08147	-22.8892	-45.2441	-1.13328	-0	-55.7115	-0	-86.6374	-1.50335	13.7677	-77.0591	44.9965	52.9764	85.9247	41.8343	-4.28308	11.3914	-16.2794	55.929	-143.189	-2.67664	-131.279	9.50468	8.25641	-10.0831	53.3276	-2.20911	27.1347	-8.6489	-1.81523	-33.3438	130.409	-19.6198	-175.598	5.20814	36.4242	-10.5947	20.7061	53.4607	-28.9101	-0.569979	-8.19974	-4.84949	153.241	15.3684	-171.237	1.7972	57.8006	0.548923	2.54655	29.2668	-7.21956	-0	-6.0471	-0	-173.031	-3.69285	-177.418	-23.2444	63.542	27.659	-2.5472	15.7685	1.60179	0.291655	-5.22659	-2.24865	-140.819	-12.3851	-173.276	-4.03741	13.5186	6.3811	-26.8665	36.5609	30.4271	-2.39024	-0.645758	5.07582	79.7103	8.72702	-13.9247	61.3664	56.4624	-37.8524	-101.936	42.3022	14.1076	0.601054	13.0483	-49.8117	118.64	14.8755	146.956	-35.0022	-19.1511	-5.55884	0.754176	14.8307	3.6246	8.6489	-1.81523	33.3438	167.982	7.08226	-167.648	18.5658	31.4831	-21.5508	5.58285	13.6582	-9.07459	2.39024	-0.645758	-5.07582	-177.125	8.57019	178.067	32.1348	68.1115	-36.0483	8.21037	42.0388	-6.41744	-0.291655	-5.22659	2.24865	-168.684	-13.4774	176.211	-3.01238	39.1676	-2.91149	-1.46146	-1.24174	0.546328	-0	-6.0471	-0	-151.948	-45.5736	-177.583	-24.3438	60.8216	35.6018	-11.6988	43.8486	18.1198	0.569979	-8.19974	4.84949	-127.556	41.6224	-48.8538	60.0424	-84.0294	51.319	-56.976	63.0377	41.569	-2.88914	56.8292	3.58209	-0.214127	1.01299	0.205132	137.1	43.2626	42.2424	-70.3038	-82.932	-65.0809	62.8356	67.9566	-51.1931	3.16411	56.8645	-5.34718	0.214127	1.01299	-0.205132
-1.16	77.5286	2.4965	2.87794	10.2363	-22.2153	4.28149	3.59021	-1.95534	3.30113	6.51299	-2.32381	4.00407	22.7503	-2.43147	-3.74638	21.5157	3.37212	-19.6101	-45.1391	0.0219737	-0	-55.7115	-0	-87.3497	-1.52702	13.7269	-74.9219	46.0063	53.0342	85.9958	41.8409	-4.32626	10.3927	-15.1407	57.2338	-143.189	-2.67656	-131.279	9.50468	8.25641	-10.0831	53.3276	-2.20911	27.1347	-8.6489	-1.81523	-33.3438	130.409	-19.6198	-175.598	5.20812	36.4241	-10.5947	20.7061	53.4607	-28.9101	-0.569979	-8.19974	-4.84949	153.241	15.3684	-171.237	1.7972	57.8006	0.548923	2.54655	29.2668	-7.21956	-0	-6.0471	-0	-173.031	-3.69285	-177.418	-23.2444	63.542	27.659	-2.5472	15.7685	1.60179	0.291655	-5.22659	-2.24865	-140.819	-12.3851	-173.276	-4.03741	13.5186	6.3811	-26.8665	36.5609	30.4271	-2.39024	-0.645758	5.07582	80.3342	8.36711	-13.9439	62.6553	56.4856	-38.8373	-100.116	42.3518	12.9888	0.736019	13.0059	-50.2009	118.64	14.8755	146.956	-35.0022	-19.1511	-5.55884	0.754202	14.8307	3.6245	8.6489	-1.81523	33.3438	167.982	7.08226	-167.648	18.5657	31.4831	-21.5507	5.58283	13.6581	-9.07459	2.39024	-0.645758	-5.07582	-177.125	8.57019	178.067	32.1346	68.1116	-36.0481	8.21037	42.0388	-6.41744	-0.291655	-5.22659	2.24865	-168.684	-13.4774	176.211	-3.01238	39.1676	-2.91149	-1.46146	-1.24184	0.546328	-0	-6.0471	-0	-151.948	-45.5736	-177.583	-24.3436	60.8216	35.6017	-11.6988	43.8486	18.1198	0.569979	-8.19974	4.84949	-127.052	42.2217	-49.844	69.0726	-83.8868	61.08	-56.7651	63.3235	41.7617	-2.88709	56.8612	3.58205	-0.214127	1.01299	0.205132	137.038	42.5735	41.6845	-68.8751	-83.0711	-63.5036	63.1021	67.6412	-50.6808	3.16859	57.1	-5.38822	0.214127	1.01299	-0.205132
-0.7558	77.4232	2.7139	2.62442	10.2516	-21.4627	3.91999	3.88178	-1.70982	3.02521	6.71119	-2.13322	3.66936	22.9448	-2.21883	-4.37385	21.7734	2.83446	-17.1608	-45.0199	1.01437	-0	-55.7115	-0	-87.4875	-1.55372	13.7146	-73.5667	46.8024	52.8256	86.1569	41.8557	-4.42419	9.68946	-14.2814	57.5799	-143.189	-2.67656	-131.279	9.50468	8.25641	-10.0831	53.3276	-2.20911	27.1347	-8.6489	-1.81523	-33.3438	130.409	-19.6198	-175.598	5.20812	36.4241	-10.5947	20.7061	53.4607	-28.9101	-0.569979	-8.19974	-4.84949	153.241	15.3684	-171.237	1.7972	57.8006	0.548923	2.54655	29.2668	-7.21956	-0	-6.0471	-0	-173.031	-3.69285	-177.418	-23.2444	63.542	27.659	-2.5472	15.7685	1.60179	0.291655	-5.22659	-2.24865	-140.819	-12.3851	-173.276	-4.03741	13.5186	6.3811	-26.8665	36.5609	30.4271	-2.39024	-0.645758	5.07582	80.3957	8.30562	-13.9431	64.108	56.471	-40.0217	-98.4012	42.3745	11.9332	0.70748	12.9696	-50.2616	118.64	14.8755	146.956	-35.0022	-19.151	-5.55883	0.754202	14.8307	3.6245	8.6489	-1.81523	33.3438	167.982	7.08234	-167.648	18.5657	31.4831	-21.5507	5.58283	13.6581	-9.07459	2.39024	-0.645758	-5.07582	-177.125	8.5703	178.067	32.1345	68.1115	-36.0479	8.21037	42.0388	-6.41744	-0.291655	-5.22659	2.24865	-168.684	-13.4773	176.211	-3.01238	39.1675	-2.91149	-1.46146	-1.24184	0.546228	-0	-6.0471	-0	-151.948	-45.5735	-177.583	-24.3436	60.8216	35.6017	-11.6988	43.8486	18.1198	0.569979	-8.19974	4.84949	-127.115	43.111	-50.2047	75.4435	-83.3842	67.4001	-56.6451	63.2627	41.6864	-2.90026	56.9564	3.71756	-0.214127	1.01299	0.205132	137.127	42.1079	41.3684	-69.7956	-83.0221	-63.7906	63.3531	67.5053	-50.3422	3.08774	57.221	-4.9169	0.214127	1.01299	-0.205132
-0.4642	77.3244	2.8245	2.44408	10.3124	-20.8082	3.52787	4.13309	-1.64889	2.76629	6.87941	-2.07948	3.39415	23.1114	-2.1622	-4.96254	22.0927	2.47708	-15.3522	-44.852	2.00576	-0	-55.7115	-0	-87.374	-1.58392	13.7169	-72.723	47.5208	52.307	86.2056	41.8602	-4.45381	9.572	-14.0383	57.5405	-143.189	-2.67656	-131.279	9.50468	8.25641	-10.0831	53.3276	-2.20911	27.1347	-8.6489	-1.81523	-33.3438	130.409	-19.6198	-175.598	5.20812	36.4241	-10.5947	20.7061	53.4607	-28.9101	-0.569979	-8.19974	-4.84949	153.241	15.3684	-171.237	1.7972	57.8006	0.548923	2.54655	29.2668	-7.21956	-0	-6.0471	-0	-173.031	-3.69285	-177.418	-23.2444	63.542	27.659	-2.5472	15.7685	1.60179	0.291655	-5.22659	-2.24865	-140.819	-12.3851	-173.276	-4.03741	13.5186	6.3811	-26.8664	36.5609	30.4271	-2.39024	-0.645758	5.07582	79.9323	8.57673	-13.9333	65.6611	56.4178	-41.3269	-96.7721	42.3744	10.9303	0.511749	12.9415	-50.1367	118.64	14.8755	146.956	-35.0022	-19.1511	-5.55884	0.754176	14.8307	3.6246	8.6489	-1.81523	33.3438	167.982	7.08234	-167.648	18.5657	31.483	-21.5506	5.58283	13.6581	-9.07459	2.39024	-0.645758	-5.07582	-177.125	8.5703	178.067	32.1347	68.1114	-36.0482	8.21035	42.0387	-6.41743	-0.291655	-5.22659	2.24865	-168.684	-13.4773	176.211	-3.01238	39.1675	-2.91149	-1.46146	-1.24184	0.546228	-0	-6.0471	-0	-151.948	-45.5735	-177.583	-24.3436	60.8216	35.6017	-11.6988	43.8486	18.1198	0.569979	-8.19974	4.84949	-127.311	44.0637	-50.3468	80.0667	-82.8456	71.5605	-56.7865	63.1719	41.7993	-2.92526	57.099	3.95148	-0.214127	1.01299	0.205132	137.342	41.8478	41.1422	-71.134	-82.9808	-64.5144	64.0189	67.779	-51.0009	2.96981	56.9144	-4.12199	0.214127	1.01299	-0.205132
